<?xml version="1.0" standalone="no"?>
<!DOCTYPE svg PUBLIC "-//W3C//DTD SVG 20010904//EN"
 "http://www.w3.org/TR/2001/REC-SVG-20010904/DTD/svg10.dtd">
<svg version="1.0" xmlns="http://www.w3.org/2000/svg"
 width="400.000000pt" height="400.000000pt" viewBox="0 0 400.000000 400.000000"
 preserveAspectRatio="xMidYMid meet">
<metadata>
Created by potrace 1.11, written by Peter Selinger 2001-2013
</metadata>
<g transform="translate(0.000000,400.000000) scale(0.100000,-0.100000)"
fill="#000000" stroke="none">
<path d="M1825 3940 c-66 -35 -124 -66 -130 -70 -5 -4 -107 -60 -225 -125
-118 -65 -235 -129 -260 -143 -25 -13 -70 -38 -100 -54 -30 -17 -85 -48 -123
-69 -38 -21 -70 -39 -72 -39 -2 0 -30 -15 -62 -33 -32 -19 -92 -52 -133 -74
-41 -22 -93 -51 -115 -63 -42 -24 -58 -33 -227 -125 -135 -73 -175 -106 -204
-169 l-24 -51 0 -925 0 -925 24 -50 c13 -27 36 -62 52 -77 16 -14 121 -77 234
-138 113 -62 225 -124 250 -137 25 -14 79 -44 120 -66 41 -22 80 -43 85 -47 6
-4 39 -23 75 -42 36 -19 106 -58 155 -85 50 -27 126 -69 170 -93 44 -24 114
-62 155 -85 150 -84 271 -150 388 -211 71 -38 91 -44 142 -44 64 0 120 25 385
175 61 34 139 78 175 97 69 38 344 189 420 230 25 14 142 78 260 143 303 167
295 162 348 192 26 14 65 35 87 47 73 37 126 87 151 140 l24 51 0 925 0 925
-24 50 c-36 76 -55 91 -261 200 -49 26 -94 51 -100 55 -5 4 -41 25 -80 45 -64
35 -382 210 -500 275 -27 15 -140 77 -250 137 -110 61 -281 154 -380 209 -168
92 -184 99 -245 102 -64 4 -69 2 -185 -58z"/>
</g>
</svg>
